<svg id="visual" viewBox="0 0 540 960" width="540" height="960" xmlns="http://www.w3.org/2000/svg" xmlns:xlink="http://www.w3.org/1999/xlink" version="1.1"><path d="M0 685L10 696.5C20 708 40 731 60 733.8C80 736.7 100 719.3 120 710.5C140 701.7 160 701.3 180 694C200 686.7 220 672.3 240 671.2C260 670 280 682 300 692.3C320 702.7 340 711.3 360 719.3C380 727.3 400 734.7 420 737.8C440 741 460 740 480 731.8C500 723.7 520 708.3 530 700.7L540 693L540 961L530 961C520 961 500 961 480 961C460 961 440 961 420 961C400 961 380 961 360 961C340 961 320 961 300 961C280 961 260 961 240 961C220 961 200 961 180 961C160 961 140 961 120 961C100 961 80 961 60 961C40 961 20 961 10 961L0 961Z" fill="#53a6fe"></path><path d="M0 798L10 790.3C20 782.7 40 767.3 60 770.5C80 773.7 100 795.3 120 793.7C140 792 160 767 180 752.3C200 737.7 220 733.3 240 741.3C260 749.3 280 769.7 300 781.5C320 793.3 340 796.7 360 793.7C380 790.7 400 781.3 420 771.7C440 762 460 752 480 750.3C500 748.7 520 755.3 530 758.7L540 762L540 961L530 961C520 961 500 961 480 961C460 961 440 961 420 961C400 961 380 961 360 961C340 961 320 961 300 961C280 961 260 961 240 961C220 961 200 961 180 961C160 961 140 961 120 961C100 961 80 961 60 961C40 961 20 961 10 961L0 961Z" fill="#4c79b1"></path><path d="M0 850L10 842.8C20 835.7 40 821.3 60 821C80 820.7 100 834.3 120 835.3C140 836.3 160 824.7 180 815.3C200 806 220 799 240 807.5C260 816 280 840 300 843.2C320 846.3 340 828.7 360 825.8C380 823 400 835 420 835C440 835 460 823 480 813.5C500 804 520 797 530 793.5L540 790L540 961L530 961C520 961 500 961 480 961C460 961 440 961 420 961C400 961 380 961 360 961C340 961 320 961 300 961C280 961 260 961 240 961C220 961 200 961 180 961C160 961 140 961 120 961C100 961 80 961 60 961C40 961 20 961 10 961L0 961Z" fill="#3e4f69"></path><path d="M0 882L10 885.2C20 888.3 40 894.7 60 892.7C80 890.7 100 880.3 120 871.7C140 863 160 856 180 858.7C200 861.3 220 873.7 240 881.5C260 889.3 280 892.7 300 890C320 887.3 340 878.7 360 881.3C380 884 400 898 420 897.3C440 896.7 460 881.3 480 871.7C500 862 520 858 530 856L540 854L540 961L530 961C520 961 500 961 480 961C460 961 440 961 420 961C400 961 380 961 360 961C340 961 320 961 300 961C280 961 260 961 240 961C220 961 200 961 180 961C160 961 140 961 120 961C100 961 80 961 60 961C40 961 20 961 10 961L0 961Z" fill="#292929"></path></svg>