<svg id="visual" viewBox="0 0 960 540" width="960" height="540" xmlns="http://www.w3.org/2000/svg" xmlns:xlink="http://www.w3.org/1999/xlink" version="1.1"><path d="M0 424L17.8 416.8C35.7 409.7 71.3 395.3 106.8 393.7C142.3 392 177.7 403 213.2 400.2C248.7 397.3 284.3 380.7 320 376.2C355.7 371.7 391.3 379.3 426.8 390C462.3 400.7 497.7 414.3 533.2 422.5C568.7 430.7 604.3 433.3 640 426.7C675.7 420 711.3 404 746.8 391.5C782.3 379 817.7 370 853.2 365.7C888.7 361.3 924.3 361.7 942.2 361.8L960 362L960 541L942.2 541C924.3 541 888.7 541 853.2 541C817.7 541 782.3 541 746.8 541C711.3 541 675.7 541 640 541C604.3 541 568.7 541 533.2 541C497.7 541 462.3 541 426.8 541C391.3 541 355.7 541 320 541C284.3 541 248.7 541 213.2 541C177.7 541 142.3 541 106.8 541C71.3 541 35.7 541 17.8 541L0 541Z" fill="#53a6fe"></path><path d="M0 456L17.8 452C35.7 448 71.3 440 106.8 438.7C142.3 437.3 177.7 442.7 213.2 438.5C248.7 434.3 284.3 420.7 320 412.8C355.7 405 391.3 403 426.8 410.3C462.3 417.7 497.7 434.3 533.2 435.3C568.7 436.3 604.3 421.7 640 421.3C675.7 421 711.3 435 746.8 441.7C782.3 448.3 817.7 447.7 853.2 447.8C888.7 448 924.3 449 942.2 449.5L960 450L960 541L942.2 541C924.3 541 888.7 541 853.2 541C817.7 541 782.3 541 746.8 541C711.3 541 675.7 541 640 541C604.3 541 568.7 541 533.2 541C497.7 541 462.3 541 426.8 541C391.3 541 355.7 541 320 541C284.3 541 248.7 541 213.2 541C177.7 541 142.3 541 106.8 541C71.3 541 35.7 541 17.8 541L0 541Z" fill="#4c79b1"></path><path d="M0 486L17.8 480.8C35.7 475.7 71.3 465.3 106.8 461.3C142.3 457.3 177.7 459.7 213.2 457.2C248.7 454.7 284.3 447.3 320 450.8C355.7 454.3 391.3 468.7 426.8 475.7C462.3 482.7 497.7 482.3 533.2 480.7C568.7 479 604.3 476 640 468.7C675.7 461.3 711.3 449.7 746.8 451.5C782.3 453.3 817.7 468.7 853.2 476.7C888.7 484.7 924.3 485.3 942.2 485.7L960 486L960 541L942.2 541C924.3 541 888.7 541 853.2 541C817.7 541 782.3 541 746.8 541C711.3 541 675.7 541 640 541C604.3 541 568.7 541 533.2 541C497.7 541 462.3 541 426.8 541C391.3 541 355.7 541 320 541C284.3 541 248.7 541 213.2 541C177.7 541 142.3 541 106.8 541C71.3 541 35.7 541 17.8 541L0 541Z" fill="#3e4f69"></path><path d="M0 516L17.8 515.7C35.7 515.3 71.3 514.7 106.8 509.7C142.3 504.7 177.7 495.3 213.2 495.8C248.7 496.3 284.3 506.7 320 508C355.7 509.3 391.3 501.7 426.8 500.7C462.3 499.7 497.7 505.3 533.2 509.2C568.7 513 604.3 515 640 510.3C675.7 505.7 711.3 494.3 746.8 487.7C782.3 481 817.7 479 853.2 482.8C888.7 486.7 924.3 496.3 942.2 501.2L960 506L960 541L942.2 541C924.3 541 888.7 541 853.2 541C817.7 541 782.3 541 746.8 541C711.3 541 675.7 541 640 541C604.3 541 568.7 541 533.2 541C497.7 541 462.3 541 426.8 541C391.3 541 355.7 541 320 541C284.3 541 248.7 541 213.2 541C177.7 541 142.3 541 106.8 541C71.3 541 35.7 541 17.8 541L0 541Z" fill="#292929"></path></svg>