<svg id="visual" viewBox="0 0 960 540" width="960" height="540" xmlns="http://www.w3.org/2000/svg" xmlns:xlink="http://www.w3.org/1999/xlink" version="1.1"><path d="M0 57L13.3 65.2C26.7 73.3 53.3 89.7 80 91.5C106.7 93.3 133.3 80.7 160 76.7C186.7 72.7 213.3 77.3 240 75.3C266.7 73.3 293.3 64.7 320 76.7C346.7 88.7 373.3 121.3 400 128.8C426.7 136.3 453.3 118.7 480 112.5C506.7 106.3 533.3 111.7 560 120.3C586.7 129 613.3 141 640 144.8C666.7 148.7 693.3 144.3 720 133.2C746.7 122 773.3 104 800 91.2C826.7 78.3 853.3 70.7 880 67C906.7 63.3 933.3 63.7 946.7 63.8L960 64L960 0L946.7 0C933.3 0 906.7 0 880 0C853.3 0 826.7 0 800 0C773.3 0 746.7 0 720 0C693.3 0 666.7 0 640 0C613.3 0 586.7 0 560 0C533.3 0 506.7 0 480 0C453.3 0 426.7 0 400 0C373.3 0 346.7 0 320 0C293.3 0 266.7 0 240 0C213.3 0 186.7 0 160 0C133.3 0 106.7 0 80 0C53.3 0 26.7 0 13.3 0L0 0Z" fill="#A63D40" stroke-linecap="round" stroke-linejoin="miter"></path></svg>