<svg id="visual" viewBox="0 0 450 900" width="450" height="900" xmlns="http://www.w3.org/2000/svg" xmlns:xlink="http://www.w3.org/1999/xlink" version="1.1"><path d="M0 777L6.3 777.8C12.7 778.7 25.3 780.3 37.8 772.5C50.3 764.7 62.7 747.3 75.2 742.3C87.7 737.3 100.3 744.7 112.8 756.8C125.3 769 137.7 786 150.2 783.3C162.7 780.7 175.3 758.3 187.8 758.7C200.3 759 212.7 782 225.2 791.7C237.7 801.3 250.3 797.7 262.8 791.3C275.3 785 287.7 776 300.2 749C312.7 722 325.3 677 337.8 664.3C350.3 651.7 362.7 671.3 375.2 696.2C387.7 721 400.3 751 412.8 741.7C425.3 732.3 437.7 683.7 443.8 659.3L450 635L450 901L443.8 901C437.7 901 425.3 901 412.8 901C400.3 901 387.7 901 375.2 901C362.7 901 350.3 901 337.8 901C325.3 901 312.7 901 300.2 901C287.7 901 275.3 901 262.8 901C250.3 901 237.7 901 225.2 901C212.7 901 200.3 901 187.8 901C175.3 901 162.7 901 150.2 901C137.7 901 125.3 901 112.8 901C100.3 901 87.7 901 75.2 901C62.7 901 50.3 901 37.8 901C25.3 901 12.7 901 6.3 901L0 901Z" fill="#292929" stroke-linecap="round" stroke-linejoin="miter"></path></svg>
