<svg id="visual" viewBox="0 0 900 900" width="900" height="900" xmlns="http://www.w3.org/2000/svg" xmlns:xlink="http://www.w3.org/1999/xlink" version="1.1"><path d="M336 0L335.7 8.8C335.3 17.7 334.7 35.3 333 53C331.3 70.7 328.7 88.3 335.7 106C342.7 123.7 359.3 141.3 355.3 159C351.3 176.7 326.7 194.3 315 212C303.3 229.7 304.7 247.3 310.7 265C316.7 282.7 327.3 300.3 336 318C344.7 335.7 351.3 353.3 352 371C352.7 388.7 347.3 406.3 338.5 423.8C329.7 441.3 317.3 458.7 306.7 476.2C296 493.7 287 511.3 297.5 529C308 546.7 338 564.3 338.8 582C339.7 599.7 311.3 617.3 300.5 635C289.7 652.7 296.3 670.3 301.5 688C306.7 705.7 310.3 723.3 323.3 741C336.3 758.7 358.7 776.3 367.5 794C376.3 811.7 371.7 829.3 368.2 847C364.7 864.7 362.3 882.3 361.2 891.2L360 900L0 900L0 891.2C0 882.3 0 864.7 0 847C0 829.3 0 811.7 0 794C0 776.3 0 758.7 0 741C0 723.3 0 705.7 0 688C0 670.3 0 652.7 0 635C0 617.3 0 599.7 0 582C0 564.3 0 546.7 0 529C0 511.3 0 493.7 0 476.2C0 458.7 0 441.3 0 423.8C0 406.3 0 388.7 0 371C0 353.3 0 335.7 0 318C0 300.3 0 282.7 0 265C0 247.3 0 229.7 0 212C0 194.3 0 176.7 0 159C0 141.3 0 123.7 0 106C0 88.3 0 70.7 0 53C0 35.3 0 17.7 0 8.8L0 0Z" fill="#1f1f1f"></path><path d="M281 0L270.8 8.8C260.7 17.7 240.3 35.3 244.5 53C248.7 70.7 277.3 88.3 280.2 106C283 123.7 260 141.3 258.5 159C257 176.7 277 194.3 289.2 212C301.3 229.7 305.7 247.3 297.5 265C289.3 282.7 268.7 300.3 258.5 318C248.3 335.7 248.7 353.3 247.3 371C246 388.7 243 406.3 254.2 423.8C265.3 441.3 290.7 458.7 303.7 476.2C316.7 493.7 317.3 511.3 303.8 529C290.3 546.7 262.7 564.3 249.3 582C236 599.7 237 617.3 249 635C261 652.7 284 670.3 292.5 688C301 705.7 295 723.3 282 741C269 758.7 249 776.3 240.3 794C231.7 811.7 234.3 829.3 244.8 847C255.3 864.7 273.7 882.3 282.8 891.2L292 900L0 900L0 891.2C0 882.3 0 864.7 0 847C0 829.3 0 811.7 0 794C0 776.3 0 758.7 0 741C0 723.3 0 705.7 0 688C0 670.3 0 652.7 0 635C0 617.3 0 599.7 0 582C0 564.3 0 546.7 0 529C0 511.3 0 493.7 0 476.2C0 458.7 0 441.3 0 423.8C0 406.3 0 388.7 0 371C0 353.3 0 335.7 0 318C0 300.3 0 282.7 0 265C0 247.3 0 229.7 0 212C0 194.3 0 176.7 0 159C0 141.3 0 123.7 0 106C0 88.3 0 70.7 0 53C0 35.3 0 17.7 0 8.8L0 0Z" fill="#252a3d"></path><path d="M221 0L220.5 8.8C220 17.7 219 35.3 209 53C199 70.7 180 88.3 169.7 106C159.3 123.7 157.7 141.3 170.7 159C183.7 176.7 211.3 194.3 213.8 212C216.3 229.7 193.7 247.3 182.3 265C171 282.7 171 300.3 170.2 318C169.3 335.7 167.7 353.3 172 371C176.3 388.7 186.7 406.3 187.7 423.8C188.7 441.3 180.3 458.7 186.8 476.2C193.3 493.7 214.7 511.3 222.2 529C229.7 546.7 223.3 564.3 219.5 582C215.7 599.7 214.3 617.3 218.5 635C222.7 652.7 232.3 670.3 226.8 688C221.3 705.7 200.7 723.3 188.5 741C176.3 758.7 172.7 776.3 173.7 794C174.7 811.7 180.3 829.3 182.2 847C184 864.7 182 882.3 181 891.2L180 900L0 900L0 891.2C0 882.3 0 864.7 0 847C0 829.3 0 811.7 0 794C0 776.3 0 758.7 0 741C0 723.3 0 705.7 0 688C0 670.3 0 652.7 0 635C0 617.3 0 599.7 0 582C0 564.3 0 546.7 0 529C0 511.3 0 493.7 0 476.2C0 458.7 0 441.3 0 423.8C0 406.3 0 388.7 0 371C0 353.3 0 335.7 0 318C0 300.3 0 282.7 0 265C0 247.3 0 229.7 0 212C0 194.3 0 176.7 0 159C0 141.3 0 123.7 0 106C0 88.3 0 70.7 0 53C0 35.3 0 17.7 0 8.8L0 0Z" fill="#26365d"></path><path d="M124 0L126.3 8.8C128.7 17.7 133.3 35.3 129.8 53C126.3 70.7 114.7 88.3 111.5 106C108.3 123.7 113.7 141.3 115.5 159C117.3 176.7 115.7 194.3 126.2 212C136.7 229.7 159.3 247.3 170 265C180.7 282.7 179.3 300.3 172.7 318C166 335.7 154 353.3 147.7 371C141.3 388.7 140.7 406.3 146 423.8C151.3 441.3 162.7 458.7 158.7 476.2C154.7 493.7 135.3 511.3 124.2 529C113 546.7 110 564.3 116.5 582C123 599.7 139 617.3 145.3 635C151.7 652.7 148.3 670.3 151.2 688C154 705.7 163 723.3 159.8 741C156.7 758.7 141.3 776.3 129.3 794C117.3 811.7 108.7 829.3 114.3 847C120 864.7 140 882.3 150 891.2L160 900L0 900L0 891.2C0 882.3 0 864.7 0 847C0 829.3 0 811.7 0 794C0 776.3 0 758.7 0 741C0 723.3 0 705.7 0 688C0 670.3 0 652.7 0 635C0 617.3 0 599.7 0 582C0 564.3 0 546.7 0 529C0 511.3 0 493.7 0 476.2C0 458.7 0 441.3 0 423.8C0 406.3 0 388.7 0 371C0 353.3 0 335.7 0 318C0 300.3 0 282.7 0 265C0 247.3 0 229.7 0 212C0 194.3 0 176.7 0 159C0 141.3 0 123.7 0 106C0 88.3 0 70.7 0 53C0 35.3 0 17.7 0 8.8L0 0Z" fill="#1f427f"></path><path d="M103 0L94.3 8.8C85.7 17.7 68.3 35.3 63.7 53C59 70.7 67 88.3 73.2 106C79.3 123.7 83.7 141.3 86.2 159C88.7 176.7 89.3 194.3 92.8 212C96.3 229.7 102.7 247.3 106.3 265C110 282.7 111 300.3 101.3 318C91.7 335.7 71.3 353.3 66.7 371C62 388.7 73 406.3 72.3 423.8C71.7 441.3 59.3 458.7 62.2 476.2C65 493.7 83 511.3 85.2 529C87.3 546.7 73.7 564.3 64.8 582C56 599.7 52 617.3 60.2 635C68.3 652.7 88.7 670.3 95.5 688C102.3 705.7 95.7 723.3 92.7 741C89.7 758.7 90.3 776.3 85 794C79.7 811.7 68.3 829.3 63.7 847C59 864.7 61 882.3 62 891.2L63 900L0 900L0 891.2C0 882.3 0 864.7 0 847C0 829.3 0 811.7 0 794C0 776.3 0 758.7 0 741C0 723.3 0 705.7 0 688C0 670.3 0 652.7 0 635C0 617.3 0 599.7 0 582C0 564.3 0 546.7 0 529C0 511.3 0 493.7 0 476.2C0 458.7 0 441.3 0 423.8C0 406.3 0 388.7 0 371C0 353.3 0 335.7 0 318C0 300.3 0 282.7 0 265C0 247.3 0 229.7 0 212C0 194.3 0 176.7 0 159C0 141.3 0 123.7 0 106C0 88.3 0 70.7 0 53C0 35.3 0 17.7 0 8.8L0 0Z" fill="#014fa2"></path></svg>